Patient4_TMGait_0pt5_01_right_09_GRF.mot
version=1
nRows=58
nColumns=19
inDegrees=no
endheader
time	F1x	F1y	F1z	M1x	M1y	M1z	F2x	F2y	F2z	M2x	M2y	M2z	EC1x	EC1y	EC1z	EC2x	EC2y	EC2z
11.44	26.5366	734.0719	60.1286	-258.0598	-29.965	516.6058	0.087762	-5.2682	11.9638	-4.1392	-6.3105	-0.63536	-0.0592	0.0182	-0.0073	-0.0462	0.0165	0.9585
11.4537	24.3393	725.6614	60.3914	-254.8907	-30.9675	507.7649	0.052505	-2.6514	8.1779	-2.4472	-4.3321	0.222	-0.0592	0.0182	-0.0073	-0.0462	0.0165	0.9585
11.4674	22.7529	718.6284	60.6116	-252.1638	-31.6558	499.7252	-0.016413	-0.35453	4.8735	-0.95818	-2.5661	1.0548	-0.0592	0.0182	-0.0073	-0.0462	0.0165	0.9585
11.4811	21.8872	714.1163	60.8149	-250.2941	-32.0078	493.3833	-0.11105	1.4751	2.2883	0.22306	-1.1542	1.793	-0.0592	0.0182	-0.0073	-0.0462	0.0165	0.9585
11.4949	21.6984	712.8198	60.9995	-249.5365	-32.0437	489.2495	-0.20598	2.8032	0.453	1.077	-0.13096	2.3819	-0.0592	0.0182	-0.0073	-0.0462	0.0165	0.9585
11.5086	22.0333	714.9375	61.1887	-249.9657	-31.8498	487.4766	-0.31141	3.6805	-0.7209	1.6351	0.5453	2.8249	-0.0592	0.0182	-0.0073	-0.0462	0.0165	0.9585
11.5223	22.7443	720.1968	61.3683	-251.4868	-31.482	487.8677	-0.41856	4.1623	-1.369	1.9412	0.93902	3.1017	-0.0592	0.0182	-0.0073	-0.0462	0.0165	0.9585
11.536	23.7115	727.9743	61.5423	-253.8789	-30.9998	489.9845	-0.52817	4.2932	-1.6429	2.0377	1.1313	3.1954	-0.0592	0.0182	-0.0073	-0.0462	0.0165	0.9585
11.5497	24.8636	737.4674	61.6949	-256.856	-30.4251	493.267	-0.64895	4.0974	-1.673	1.9553	1.1952	3.0876	-0.0592	0.0182	-0.0073	-0.0462	0.0165	0.9585
11.5634	26.1739	747.8024	61.8247	-260.1057	-29.7778	497.1048	-0.76013	3.5502	-1.5647	1.7035	1.1832	2.7076	-0.0592	0.0182	-0.0073	-0.0462	0.0165	0.9585
11.5771	27.6153	758.0897	61.9329	-263.3084	-29.0731	500.9029	-0.86091	2.6059	-1.3886	1.2745	1.1291	1.9934	-0.0592	0.0182	-0.0073	-0.0462	0.0165	0.9585
11.5909	29.1976	767.4453	62.0271	-266.1482	-28.3236	504.0665	-0.91587	1.202	-1.1927	0.65062	1.046	0.86232	-0.0592	0.0182	-0.0073	-0.0462	0.0165	0.9585
11.6046	30.9381	775.06	62.1189	-268.3393	-27.5402	506.0686	-0.88211	-0.69892	-1.0012	-0.17804	0.9266	-0.72991	-0.0592	0.0182	-0.0073	-0.0462	0.0165	0.9585
11.6183	32.8801	780.2782	62.2149	-269.6533	-26.7216	506.4884	-0.70602	-3.0541	-0.82896	-1.189	0.75253	-2.7418	-0.0592	0.0182	-0.0073	-0.0462	0.0165	0.9585
11.632	35.0605	782.6316	62.3216	-269.9298	-25.8627	505.0372	-0.30067	-5.6754	-0.67948	-2.2996	0.49172	-5.0167	-0.0592	0.0182	-0.0073	-0.0462	0.0165	0.9585
11.6457	37.4727	781.8472	62.4377	-269.0761	-24.9628	501.5829	0.41117	-8.1133	-0.55126	-3.323	0.11088	-7.155	-0.0592	0.0182	-0.0073	-0.0462	0.0165	0.9585
11.6594	40.0722	777.816	62.5663	-267.055	-24.0391	496.1052	1.5219	-9.6016	-0.43299	-3.9394	-0.43273	-8.4936	-0.0592	0.0182	-0.0073	-0.0462	0.0165	0.9585
11.6731	42.7687	770.6346	62.6998	-263.8969	-23.1113	488.7265	3.0849	-8.9403	-0.31095	-3.6547	-1.1661	-7.9779	-0.0592	0.0182	-0.0073	-0.0462	0.0165	0.9585
11.6869	45.4814	760.5664	62.8071	-259.6933	-22.1842	479.66	5.0871	-4.4593	-0.17389	-1.7827	-2.0869	-4.1509	-0.0592	0.0182	-0.0073	-0.0462	0.0165	0.9585
11.7006	48.1187	747.9708	62.8258	-254.5757	-21.2454	469.1711	7.3889	5.9366	-0.028723	2.5407	-3.126	4.8073	-0.0592	0.0182	-0.0073	-0.0462	0.0165	0.9585
11.7143	50.5788	733.1722	62.659	-248.6732	-20.2654	457.5033	9.6282	24.5952	0.097326	10.2839	-4.1076	20.964	-0.0592	0.0182	-0.0073	-0.0462	0.0165	0.9585
11.728	52.7446	716.2547	62.1609	-242.0457	-19.1856	444.7401	11.1501	53.7302	0.14346	22.3623	-4.7027	46.2697	-0.0592	0.0182	-0.0073	-0.0462	0.0165	0.9585
11.7417	54.4559	696.9156	61.1519	-234.6323	-17.9499	430.7506	10.8463	94.84	0.023691	39.3919	-4.3844	82.0723	-0.0592	0.0182	-0.0073	-0.0462	0.0165	0.9585
11.7554	55.5349	674.3635	59.4165	-226.2232	-16.4923	415.1002	7.4334	147.7776	-0.38652	61.3071	-2.5249	128.2875	-0.0592	0.0182	-0.0073	-0.0462	0.0165	0.9585
11.7691	55.7836	647.4172	56.7577	-216.4787	-14.7732	397.1243	0.17025	209.872	-1.2095	86.9931	1.2661	182.6081	-0.0592	0.0182	-0.0073	-0.0462	0.0165	0.9585
11.7829	55.0345	614.7762	53.0314	-205.0123	-12.7707	376.0549	-10.0848	275.4839	-2.7141	114.1015	6.8526	240.0453	-0.0592	0.0182	-0.0073	-0.0462	0.0165	0.9585
11.7966	53.1696	575.411	48.2787	-191.5096	-10.5669	351.2448	-21.3665	337.6554	-5.1996	139.746	13.6739	294.3024	-0.0592	0.0182	-0.0073	-0.0462	0.0165	0.9585
11.8103	50.119	529.0374	42.7194	-175.8706	-8.3172	322.4818	-31.9621	391.9451	-8.537	162.0853	20.8838	341.2296	-0.0592	0.0182	-0.0073	-0.0462	0.0165	0.9585
11.824	45.9012	476.2776	36.7745	-158.2642	-6.2655	290.0938	-40.8685	437.7703	-12.3862	180.8726	27.7602	380.1919	-0.0592	0.0182	-0.0073	-0.0462	0.0165	0.9585
11.8377	40.6474	418.6075	30.8646	-139.127	-4.5986	254.9252	-47.6618	476.9045	-16.3527	196.8419	33.7852	412.7225	-0.0592	0.0182	-0.0073	-0.0462	0.0165	0.9585
11.8514	34.5372	358.1458	25.3275	-119.1055	-3.4404	218.2137	-52.3263	511.8845	-20.2243	211.0278	38.7822	441.0675	-0.0592	0.0182	-0.0073	-0.0462	0.0165	0.9585
11.8651	27.7903	297.3879	20.3715	-98.9818	-2.828	181.4156	-55.109	545.0604	-23.9144	224.372	42.7972	467.3177	-0.0592	0.0182	-0.0073	-0.0462	0.0165	0.9585
11.8789	20.6743	238.9205	16.122	-79.585	-2.7438	146.06	-56.501	578.1859	-27.5729	237.5457	46.1738	493.105	-0.0592	0.0182	-0.0073	-0.0462	0.0165	0.9585
11.8926	13.5893	185.1204	12.6259	-61.6949	-3.0812	113.5353	-57.1114	612.0593	-31.4702	250.8147	49.3975	519.2785	-0.0592	0.0182	-0.0073	-0.0462	0.0165	0.9585
11.9063	7.0408	137.8267	9.8684	-45.9272	-3.6612	84.9074	-57.5342	646.4178	-35.8791	264.0164	52.9426	545.7748	-0.0592	0.0182	-0.0073	-0.0462	0.0165	0.9585
11.92	1.5212	98.0312	7.7588	-32.6305	-4.2657	60.7465	-58.2102	680.1981	-40.8985	276.6854	57.0674	571.8218	-0.0592	0.0182	-0.0073	-0.0462	0.0165	0.9585
11.9337	-2.6279	65.9055	6.1245	-21.8865	-4.6793	41.1449	-59.2912	711.9532	-46.358	288.2394	61.6879	596.2533	-0.0592	0.0182	-0.0073	-0.0462	0.0165	0.9585
11.9474	-5.2662	41.036	4.7786	-13.5755	-4.7447	25.8726	-60.6816	740.1581	-51.8466	298.1029	66.4195	617.7914	-0.0592	0.0182	-0.0073	-0.0462	0.0165	0.9585
11.9611	-6.3895	22.6491	3.5767	-7.4483	-4.3814	14.4899	-62.1281	763.3106	-56.8941	305.7399	70.7725	635.1516	-0.0592	0.0182	-0.0073	-0.0462	0.0165	0.9585
11.9749	-6.2017	9.8282	2.4684	-3.1976	-3.6368	6.4817	-63.3231	780.0844	-61.1261	310.7018	74.3204	647.1833	-0.0592	0.0182	-0.0073	-0.0462	0.0165	0.9585
11.9886	-5.1897	1.6558	1.5009	-0.50745	-2.7048	1.3216	-63.9744	789.5592	-64.2882	312.7133	76.7487	653.0626	-0.0592	0.0182	-0.0073	-0.0462	0.0165	0.9585
12.0023	-3.8701	-2.8726	0.75156	0.96783	-1.8092	-1.5668	-63.8498	791.5253	-66.2481	311.7844	77.8781	652.5518	-0.0592	0.0182	-0.0073	-0.0462	0.0165	0.9585
12.016	-2.5731	-4.8105	0.21594	1.5835	-1.0496	-2.8085	-62.8151	786.7173	-66.9853	308.2925	77.6645	646.1944	-0.0592	0.0182	-0.0073	-0.0462	0.0165	0.9585
12.0297	-1.458	-5.0924	-0.12483	1.6547	-0.47098	-2.9921	-60.8503	776.7764	-66.5829	302.9629	76.1914	635.276	-0.0592	0.0182	-0.0073	-0.0462	0.0165	0.9585
12.0434	-0.601	-4.4339	-0.3223	1.4228	-0.060172	-2.5658	-58.0434	763.922	-65.2268	296.7313	73.6619	621.5541	-0.0592	0.0182	-0.0073	-0.0462	0.0165	0.9585
12.0571	0.0046367	-3.3567	-0.40797	1.0606	0.20005	-1.8672	-54.5449	750.5276	-63.1503	290.5736	70.3369	606.9093	-0.0592	0.0182	-0.0073	-0.0462	0.0165	0.9585
12.0709	0.39151	-2.1969	-0.43181	0.67745	0.3562	-1.1116	-50.5262	738.7207	-60.5873	285.3478	66.4825	593.0219	-0.0592	0.0182	-0.0073	-0.0462	0.0165	0.9585
12.0846	0.60388	-1.1467	-0.4124	0.33266	0.42785	-0.42594	-46.1448	730.0534	-57.736	281.6668	62.3276	581.1127	-0.0592	0.0182	-0.0073	-0.0462	0.0165	0.9585
12.0983	0.69701	-0.29902	-0.3782	0.051059	0.44967	0.12089	-41.5309	725.3727	-54.7611	279.8482	58.0592	571.8536	-0.0592	0.0182	-0.0073	-0.0462	0.0165	0.9585
12.112	0.70284	0.33718	-0.33005	-0.16514	0.42658	0.53932	-36.7607	724.8553	-51.808	279.9326	53.8174	565.3846	-0.0592	0.0182	-0.0073	-0.0462	0.0165	0.9585
12.1257	0.66788	0.78263	-0.28147	-0.32316	0.37916	0.84236	-31.8468	728.1231	-49.0117	281.7337	49.701	561.407	-0.0592	0.0182	-0.0073	-0.0462	0.0165	0.9585
12.1394	0.60858	1.0723	-0.22758	-0.43087	0.30741	1.0568	-26.7607	734.3963	-46.4746	284.902	45.7633	559.3234	-0.0592	0.0182	-0.0073	-0.0462	0.0165	0.9585
12.1531	0.5361	1.2373	-0.18117	-0.49522	0.23	1.1911	-21.4452	742.6726	-44.2596	289.0002	42.0156	558.3832	-0.0592	0.0182	-0.0073	-0.0462	0.0165	0.9585
12.1669	0.45805	1.2935	-0.13744	-0.51841	0.15039	1.2365	-15.8463	751.8938	-42.3961	293.5697	38.4447	557.8287	-0.0592	0.0182	-0.0073	-0.0462	0.0165	0.9585
12.1806	0.36601	1.2498	-0.10185	-0.50036	0.076375	1.1936	-9.955	761.0794	-40.8963	298.1787	35.036	556.9968	-0.0592	0.0182	-0.0073	-0.0462	0.0165	0.9585
12.1943	0.26488	1.085	-0.074717	-0.43228	0.012613	1.0305	-3.8358	769.3841	-39.7751	302.4449	31.8011	555.3634	-0.0592	0.0182	-0.0073	-0.0462	0.0165	0.9585
12.208	0.14794	0.76231	-0.050025	-0.30054	-0.048368	0.71446	2.3426	776.1408	-39.0465	306.0533	28.7908	552.5898	-0.0592	0.0182	-0.0073	-0.0462	0.0165	0.9585
12.2217	0.020944	0.22717	-0.026751	-0.087035	-0.10738	0.20195	8.3284	780.8565	-38.7072	308.7614	26.08	548.5108	-0.0592	0.0182	-0.0073	-0.0462	0.0165	0.9585
